<svg width="24" height="24" viewBox="0 0 24 24" fill="none" xmlns="http://www.w3.org/2000/svg">
    <path d="M3.74201 20.555C4.94201 22 7.17401 22 11.64 22H12.36C16.826 22 19.059 22 20.259 20.555M3.74201 20.555C2.54201 19.109 2.95401 16.915 3.77701 12.525C4.36201 9.405 4.65401 7.844 5.76501 6.922M20.259 20.555C21.459 19.109 21.047 16.915 20.224 12.525C19.639 9.405 19.346 7.844 18.235 6.922M18.235 6.922C17.125 6 15.536 6 12.361 6H11.639C8.46401 6 6.87601 6 5.76501 6.922" stroke="#222222" stroke-width="1.25"/>
    <path d="M12 12.1912L11.481 12.7332C11.6206 12.867 11.8066 12.9418 12 12.9418C12.1934 12.9418 12.3794 12.867 12.519 12.7332L12 12.1912ZM11.486 15.2612C11.069 14.9542 10.608 14.5712 10.259 14.1682C9.891 13.7422 9.75 13.4112 9.75 13.1972H8.25C8.25 13.9672 8.691 14.6472 9.125 15.1492C9.578 15.6742 10.139 16.1332 10.599 16.4702L11.486 15.2612ZM9.75 13.1972C9.75 12.6212 10.013 12.3702 10.242 12.2902C10.492 12.2022 10.956 12.2302 11.482 12.7332L12.519 11.6502C11.694 10.8602 10.658 10.5542 9.746 10.8742C8.812 11.2012 8.25 12.1002 8.25 13.1972H9.75ZM13.4 16.4702C13.86 16.1332 14.422 15.6742 14.875 15.1502C15.309 14.6482 15.75 13.9672 15.75 13.1972H14.25C14.25 13.4112 14.109 13.7422 13.74 14.1682C13.392 14.5712 12.931 14.9542 12.514 15.2612L13.4 16.4702ZM15.75 13.1972C15.75 12.1002 15.188 11.2012 14.254 10.8742C13.342 10.5542 12.306 10.8602 11.481 11.6502L12.519 12.7332C13.044 12.2302 13.508 12.2022 13.759 12.2902C13.987 12.3702 14.25 12.6202 14.25 13.1972H15.75ZM10.6 16.4702C10.968 16.7402 11.382 17.0782 12 17.0782V15.5782C11.976 15.5782 11.96 15.5782 11.906 15.5482C11.7601 15.4615 11.6198 15.3657 11.486 15.2612L10.6 16.4702ZM12.514 15.2612C12.3803 15.3664 12.24 15.4619 12.094 15.5492C12.04 15.5782 12.024 15.5782 12 15.5782V17.0782C12.618 17.0782 13.032 16.7412 13.4 16.4702L12.514 15.2612Z" fill="#FFBA38"/>
    <path d="M9 6V5C9 4.20435 9.31607 3.44129 9.87868 2.87868C10.4413 2.31607 11.2044 2 12 2C12.7956 2 13.5587 2.31607 14.1213 2.87868C14.6839 3.44129 15 4.20435 15 5V6" stroke="#222222" stroke-width="1.25" stroke-linecap="round"/>
</svg>
