<svg width="24" height="24" viewBox="0 0 24 24" fill="none" xmlns="http://www.w3.org/2000/svg">
<path d="M3 6.386C3 5.902 3.345 5.509 3.771 5.509H6.436C6.965 5.493 7.432 5.11 7.612 4.544L7.642 4.444L7.757 4.053C7.827 3.813 7.888 3.603 7.974 3.416C8.312 2.677 8.938 2.164 9.661 2.033C9.845 2 10.039 2 10.261 2H13.739C13.962 2 14.156 2 14.339 2.033C15.062 2.164 15.689 2.677 16.026 3.416C16.112 3.603 16.173 3.812 16.244 4.053L16.358 4.444L16.388 4.544C16.568 5.11 17.128 5.494 17.658 5.509H20.228C20.655 5.509 21 5.902 21 6.386C21 6.87 20.655 7.263 20.229 7.263H3.77C3.345 7.263 3 6.87 3 6.386Z" fill="#BD1F24"/>
<path fill-rule="evenodd" clip-rule="evenodd" d="M9.42498 11.482C9.83798 11.438 10.205 11.755 10.246 12.189L10.746 17.452C10.787 17.885 10.486 18.272 10.075 18.316C9.66298 18.359 9.29498 18.043 9.25398 17.609L8.75398 12.346C8.71298 11.912 9.01398 11.525 9.42498 11.482ZM14.575 11.482C14.987 11.525 15.288 11.912 15.246 12.346L14.746 17.609C14.706 18.043 14.338 18.359 13.926 18.316C13.513 18.272 13.213 17.886 13.254 17.452L13.754 12.188C13.795 11.755 14.163 11.438 14.574 11.481" fill="#BD1F24"/>
<path opacity="0.5" d="M11.596 22H12.404C15.187 22 16.578 22 17.484 21.114C18.388 20.228 18.48 18.775 18.665 15.869L18.932 11.681C19.032 10.104 19.082 9.31498 18.629 8.81598C18.175 8.31598 17.409 8.31598 15.876 8.31598H8.12398C6.59098 8.31598 5.82398 8.31598 5.37098 8.81598C4.91698 9.31598 4.96698 10.104 5.06798 11.681L5.33498 15.869C5.51998 18.775 5.61198 20.229 6.51698 21.114C7.42198 22 8.81298 22 11.596 22Z" fill="#BD1F24"/>
</svg>
